<svg width="32" height="32" viewBox="0 0 32 32" fill="none" xmlns="http://www.w3.org/2000/svg">
<g clip-path="url(#clip0_288_18)">
<rect width="32" height="32" rx="6.4" fill="white"/>
<path d="M18.8581 0.40918C19.5655 0.40918 19.9194 0.409694 20.1896 0.547388C20.4271 0.668493 20.6201 0.861464 20.7412 1.09899C20.8789 1.36923 20.8794 1.72311 20.8794 2.43047V14.6989L9.50684 3.21653V2.43047C9.50684 1.72311 9.50735 1.36923 9.64504 1.09899C9.76615 0.861464 9.95912 0.668493 10.1966 0.547388C10.4669 0.409694 10.8208 0.40918 11.5281 0.40918H18.8581Z" fill="#565656"/>
<path d="M20.8794 26.8762V29.9785C20.8794 30.6858 20.8789 31.0397 20.7412 31.31C20.6201 31.5475 20.4271 31.7405 20.1896 31.8616C19.9194 31.9993 19.5655 31.9998 18.8581 31.9998H11.5281C10.8208 31.9998 10.4669 31.9993 10.1966 31.8616C9.95912 31.7405 9.76615 31.5475 9.64504 31.31C9.50735 31.0397 9.50684 30.6858 9.50684 29.9785V15.3926L20.8794 26.8762Z" fill="#565656"/>
<path d="M5.09206 -0.271117C5.3461 -0.352309 5.61992 -0.350954 5.87319 -0.267415C6.12739 -0.183466 6.35062 0.0235204 6.74192 0.416222L6.74933 0.410052L20.8799 14.6764V26.8522L16.9928 22.9281C16.7543 22.6986 16.4793 22.4227 16.1574 22.0976L0.821184 6.61215C0.323393 6.10954 0.073278 5.85823 -0.0191715 5.56941C-0.100359 5.31539 -0.0989928 5.04155 -0.0154695 4.78829C0.0796635 4.50023 0.331941 4.25097 0.834758 3.75296L4.04933 0.569239C4.55196 0.0714293 4.80324 -0.178676 5.09206 -0.271117Z" fill="#EDEDED"/>
<circle cx="27.0887" cy="28.1004" r="3.79085" fill="#565656"/>
</g>
<defs>
<clipPath id="clip0_288_18">
<rect width="32" height="32" rx="6.4" fill="white"/>
</clipPath>
</defs>
</svg>
